<svg xmlns="http://www.w3.org/2000/svg" viewBox="-5 -5 34 34" class="icon__body" height="36"
    width="36">
    <rect x="-5" y="-5" width="34" height="34" fill="orange"></rect>
    <g class="nc-icon-wrapper">
        <path
            fill="white"
            d="M23.5 19.84H.5a.5.5 0 0 1-.5-.5V17a.5.5 0 0 1 .5-.5h.7c.37-3.39 1.7-5.91 4-7.49 4.7-3.26 11.64-1.34 11.93-1.26a.5.5 0 0 1 .34.32l2 6.17 4.26 2.32A.51.51 0 0 1 24 17v2.3a.51.51 0 0 1-.5.5zm-22.5-1h22v-1.5l-4.18-2.28a.49.49 0 0 1-.23-.28l-2-6.09c-1.27-.31-7-1.48-10.84 1.18-2.12 1.47-3.33 3.9-3.6 7.21a.49.49 0 0 1-.5.46H1z">
        </path>
        <path fill="white" d="M17 17.5H4a.5.5 0 0 1 0-1h13a.5.5 0 0 1 0 1z"></path>
        <path
            fill="white"
            d="M6.16 11.82a.51.51 0 0 1-.44-.25.52.52 0 0 1 .18-.69 10.82 10.82 0 0 1 9.1-.69.5.5 0 1 1-.36.93 9.85 9.85 0 0 0-8.25.63.59.59 0 0 1-.23.07z">
        </path>
        <path
            fill="white"
            d="M2.4 7.6h-.1a.51.51 0 0 1-.3-.22L.35 4.86a.5.5 0 0 1 .14-.69l1.68-1.09A.51.51 0 0 1 2.55 3l.49.1.09-.06.18-.57a.5.5 0 0 1 .2-.27L5.53.9A3.94 3.94 0 0 1 8.7.47a6.91 6.91 0 0 1 2.61 2 .5.5 0 0 1 0 .57.51.51 0 0 1-.53.23 4.84 4.84 0 0 0-3 .31l-.42.26 1.16 1.67a.5.5 0 0 1 0 .5l.2.32a.5.5 0 0 1-.11.67.49.49 0 0 1-.69-.15l-.45-.68a.5.5 0 0 1 0-.5L6.32 4a.5.5 0 0 1 .15-.69l.84-.55a4.51 4.51 0 0 1 2.29-.6 4.56 4.56 0 0 0-1.24-.75 3.08 3.08 0 0 0-2.3.33L4.21 3 4 3.52a.5.5 0 0 1-.2.27l-.42.27a.47.47 0 0 1-.38.07L2.54 4l-1.08.7 1.09 1.71 1.08-.7.11-.49A.49.49 0 0 1 4 4.9l.84-.54a.51.51 0 0 1 .38-.07.49.49 0 0 1 .31.21l1.08 1.74a.48.48 0 0 1 .44.23l.22.32a.5.5 0 0 1-.82.58.47.47 0 0 1-.45-.22L4.92 5.47l-.25.16-.1.49a.5.5 0 0 1-.22.31L2.67 7.52a.43.43 0 0 1-.27.08z">
        </path>
        <path
            fill="white"
            d="M17.53 24h-.11a.5.5 0 0 1-.31-.22l-1.74-2.67a.5.5 0 0 1 .84-.54l1.46 2.25.42-.27-.93-1.44a.5.5 0 1 1 .84-.54l1.2 1.85a.5.5 0 0 1-.14.69l-1.26.82a.53.53 0 0 1-.27.07z">
        </path>
    </g>
</svg>